<svg width="219" height="32" viewBox="0 0 219 32" fill="none" xmlns="http://www.w3.org/2000/svg">
<path d="M40.7969 7.99609H51.002V9.99805H42.7988V14.002H49.8008V16.0039H42.7988V19.998H51.002V22H40.7969V7.99609ZM62.8672 11.5996L59.0879 16.6777L63.043 22H60.7188L57.9258 18.2402L55.123 22H52.7988L56.7637 16.6777L52.9844 11.5996H55.2988L57.9258 15.1152L60.543 11.5996H62.8672ZM74.4492 20.0762C74.4492 20.3431 74.3971 20.5938 74.293 20.8281C74.1953 21.0625 74.0586 21.2676 73.8828 21.4434C73.7135 21.6126 73.5117 21.7493 73.2773 21.8535C73.043 21.9512 72.7923 22 72.5254 22H67.1641V26.1992H65.25V11.5996H67.1641V13.3574C67.1836 13.11 67.2487 12.8822 67.3594 12.6738C67.4701 12.459 67.61 12.2734 67.7793 12.1172C67.9486 11.9544 68.1439 11.8275 68.3652 11.7363C68.5931 11.6452 68.834 11.5996 69.0879 11.5996H72.5254C72.7923 11.5996 73.043 11.6517 73.2773 11.7559C73.5117 11.8535 73.7135 11.9902 73.8828 12.166C74.0586 12.3353 74.1953 12.5371 74.293 12.7715C74.3971 13.0059 74.4492 13.2565 74.4492 13.5234V20.0762ZM72.5254 20.0762V13.5234H67.1641V20.0762H72.5254ZM86.4512 17.7812H79.5664V20.0762H86.4512V22H79.5664C79.306 22 79.0586 21.9512 78.8242 21.8535C78.5898 21.7493 78.3848 21.6126 78.209 21.4434C78.0397 21.2676 77.903 21.0625 77.7988 20.8281C77.7012 20.5938 77.6523 20.3431 77.6523 20.0762V13.5234C77.6523 13.2565 77.7012 13.0059 77.7988 12.7715C77.903 12.5371 78.0397 12.3353 78.209 12.166C78.3848 11.9902 78.5898 11.8535 78.8242 11.7559C79.0586 11.6517 79.306 11.5996 79.5664 11.5996H84.5273C84.7943 11.5996 85.0449 11.6517 85.2793 11.7559C85.5137 11.8535 85.7155 11.9902 85.8848 12.166C86.0605 12.3353 86.1973 12.5371 86.2949 12.7715C86.3991 13.0059 86.4512 13.2565 86.4512 13.5234V17.7812ZM79.5664 13.5234V15.8574H84.5273V13.5234H79.5664ZM98.8633 22H96.9395V13.5234H91.5781V22H89.6641V11.5996H91.5781V13.4355C91.5911 13.1816 91.6497 12.944 91.7539 12.7227C91.8581 12.4948 91.9948 12.2995 92.1641 12.1367C92.3398 11.9674 92.5417 11.8372 92.7695 11.7461C92.9974 11.6484 93.2415 11.5996 93.502 11.5996H96.9395C97.2064 11.5996 97.457 11.6517 97.6914 11.7559C97.9258 11.8535 98.1276 11.9902 98.2969 12.166C98.4727 12.3353 98.6094 12.5371 98.707 12.7715C98.8112 13.0059 98.8633 13.2565 98.8633 13.5234V22ZM108.346 20.0762V17.6641H103.785C103.518 17.6641 103.268 17.6152 103.033 17.5176C102.799 17.4134 102.594 17.2767 102.418 17.1074C102.249 16.9316 102.112 16.7266 102.008 16.4922C101.91 16.2578 101.861 16.0072 101.861 15.7402V13.5234C101.861 13.2565 101.91 13.0059 102.008 12.7715C102.112 12.5371 102.249 12.3353 102.418 12.166C102.594 11.9902 102.799 11.8535 103.033 11.7559C103.268 11.6517 103.518 11.5996 103.785 11.5996H109.869V13.5234H103.785V15.7402H108.346C108.613 15.7402 108.86 15.7923 109.088 15.8965C109.322 15.9941 109.527 16.1309 109.703 16.3066C109.879 16.4759 110.016 16.6777 110.113 16.9121C110.217 17.1465 110.27 17.3971 110.27 17.6641V20.0762C110.27 20.3431 110.217 20.5938 110.113 20.8281C110.016 21.0625 109.879 21.2676 109.703 21.4434C109.527 21.6126 109.322 21.7493 109.088 21.8535C108.86 21.9512 108.613 22 108.346 22H101.861V20.0762H108.346ZM122.076 17.7812H115.191V20.0762H122.076V22H115.191C114.931 22 114.684 21.9512 114.449 21.8535C114.215 21.7493 114.01 21.6126 113.834 21.4434C113.665 21.2676 113.528 21.0625 113.424 20.8281C113.326 20.5938 113.277 20.3431 113.277 20.0762V13.5234C113.277 13.2565 113.326 13.0059 113.424 12.7715C113.528 12.5371 113.665 12.3353 113.834 12.166C114.01 11.9902 114.215 11.8535 114.449 11.7559C114.684 11.6517 114.931 11.5996 115.191 11.5996H120.152C120.419 11.5996 120.67 11.6517 120.904 11.7559C121.139 11.8535 121.34 11.9902 121.51 12.166C121.686 12.3353 121.822 12.5371 121.92 12.7715C122.024 13.0059 122.076 13.2565 122.076 13.5234V17.7812ZM115.191 13.5234V15.8574H120.152V13.5234H115.191ZM130.279 7.99609H141.48V9.99805H136.881V22H134.879V9.99805H130.279V7.99609ZM144.391 13.5234V22H142.477V11.5996H144.391V13.4355C144.404 13.1816 144.462 12.944 144.566 12.7227C144.671 12.4948 144.807 12.2995 144.977 12.1367C145.152 11.9674 145.354 11.8372 145.582 11.7461C145.81 11.6484 146.054 11.5996 146.314 11.5996H148.355C148.622 11.5996 148.87 11.6517 149.098 11.7559C149.332 11.8535 149.537 11.9902 149.713 12.166C149.889 12.3353 150.025 12.5371 150.123 12.7715C150.227 13.0059 150.279 13.2565 150.279 13.5234V15.2812H148.355V13.5234H144.391ZM152.672 17.459C152.672 17.1921 152.721 16.9447 152.818 16.7168C152.923 16.4824 153.059 16.2773 153.229 16.1016C153.404 15.9258 153.609 15.7891 153.844 15.6914C154.078 15.5872 154.326 15.5352 154.586 15.5352H159.547V13.5234H153.268V11.5996H159.547C159.814 11.5996 160.064 11.6517 160.299 11.7559C160.533 11.8535 160.735 11.9902 160.904 12.166C161.08 12.3353 161.217 12.5371 161.314 12.7715C161.419 13.0059 161.471 13.2565 161.471 13.5234V22H159.547V20.2422C159.527 20.4831 159.462 20.7109 159.352 20.9258C159.241 21.1406 159.098 21.3294 158.922 21.4922C158.753 21.6484 158.557 21.7721 158.336 21.8633C158.115 21.9544 157.88 22 157.633 22H154.586C154.326 22 154.078 21.9512 153.844 21.8535C153.609 21.7493 153.404 21.6126 153.229 21.4434C153.059 21.2676 152.923 21.0625 152.818 20.8281C152.721 20.5938 152.672 20.3431 152.672 20.0762V17.459ZM154.586 20.0762H159.547V17.459H154.586V20.0762ZM166.598 13.5234V20.0762H171.559V18.3184H173.482V20.0762C173.482 20.3431 173.43 20.5938 173.326 20.8281C173.229 21.0625 173.092 21.2676 172.916 21.4434C172.747 21.6126 172.545 21.7493 172.311 21.8535C172.076 21.9512 171.826 22 171.559 22H166.598C166.337 22 166.09 21.9512 165.855 21.8535C165.621 21.7493 165.416 21.6126 165.24 21.4434C165.071 21.2676 164.934 21.0625 164.83 20.8281C164.732 20.5938 164.684 20.3431 164.684 20.0762V13.5234C164.684 13.2565 164.732 13.0059 164.83 12.7715C164.934 12.5371 165.071 12.3353 165.24 12.166C165.416 11.9902 165.621 11.8535 165.855 11.7559C166.09 11.6517 166.337 11.5996 166.598 11.5996H171.559C171.826 11.5996 172.076 11.6517 172.311 11.7559C172.545 11.8535 172.747 11.9902 172.916 12.166C173.092 12.3353 173.229 12.5371 173.326 12.7715C173.43 13.0059 173.482 13.2565 173.482 13.5234V15.2812H171.559V13.5234H166.598ZM183.57 22L178.609 17.5566V22H176.695V7.5957H178.609V15.7012L183.17 11.5996H185.875L180.289 16.6191L186.275 22H183.57ZM196.471 17.7812H189.586V20.0762H196.471V22H189.586C189.326 22 189.078 21.9512 188.844 21.8535C188.609 21.7493 188.404 21.6126 188.229 21.4434C188.059 21.2676 187.923 21.0625 187.818 20.8281C187.721 20.5938 187.672 20.3431 187.672 20.0762V13.5234C187.672 13.2565 187.721 13.0059 187.818 12.7715C187.923 12.5371 188.059 12.3353 188.229 12.166C188.404 11.9902 188.609 11.8535 188.844 11.7559C189.078 11.6517 189.326 11.5996 189.586 11.5996H194.547C194.814 11.5996 195.064 11.6517 195.299 11.7559C195.533 11.8535 195.735 11.9902 195.904 12.166C196.08 12.3353 196.217 12.5371 196.314 12.7715C196.419 13.0059 196.471 13.2565 196.471 13.5234V17.7812ZM189.586 13.5234V15.8574H194.547V13.5234H189.586ZM201.598 13.5234V22H199.684V11.5996H201.598V13.4355C201.611 13.1816 201.669 12.944 201.773 12.7227C201.878 12.4948 202.014 12.2995 202.184 12.1367C202.359 11.9674 202.561 11.8372 202.789 11.7461C203.017 11.6484 203.261 11.5996 203.521 11.5996H205.562C205.829 11.5996 206.077 11.6517 206.305 11.7559C206.539 11.8535 206.744 11.9902 206.92 12.166C207.096 12.3353 207.232 12.5371 207.33 12.7715C207.434 13.0059 207.486 13.2565 207.486 13.5234V15.2812H205.562V13.5234H201.598Z" fill="url(#paint0_linear_100_18)"/>
<path d="M24 3L20 0L16 3L12 0L8 3L3 0V31C3 31.552 3.448 32 4 32H28C28.552 32 29 31.552 29 31V0L24 3ZM20 16.5H18V15.5C18 14.659 17.341 14 16.5 14H15.5C14.659 14 14 14.659 14 15.5C14 16.342 14.505 16.596 16.243 17.03C17.739 17.404 20 17.969 20 20.5C20 22.291 18.715 23.713 17 23.951V26H15V23.951C13.285 23.713 12 22.291 12 20.5V19.5H14V20.5C14 21.341 14.659 22 15.5 22H16.5C17.341 22 18 21.341 18 20.5C18 19.658 17.495 19.404 15.757 18.97C14.261 18.596 12 18.031 12 15.5C12 13.709 13.285 12.287 15 12.049V10H17V12.049C18.715 12.287 20 13.709 20 15.5V16.5Z" fill="#7EE68F"/>
<defs>
<linearGradient id="paint0_linear_100_18" x1="-15.3885" y1="50.2222" x2="53.5409" y2="-77.615" gradientUnits="userSpaceOnUse">
<stop stop-color="#7EE68F"/>
<stop offset="1" stop-color="#67EDD0"/>
</linearGradient>
</defs>
</svg>
